<?xml version="1.0" encoding="UTF-8" standalone="no"?>
<!DOCTYPE svg PUBLIC "-//W3C//DTD SVG 1.1//EN" "http://www.w3.org/Graphics/SVG/1.1/DTD/svg11.dtd">
<svg version="1.1" xmlns="http://www.w3.org/2000/svg" xmlns:xlink="http://www.w3.org/1999/xlink" preserveAspectRatio="xMidYMid meet" viewBox="0 0 309 309" width="309" height="309"><defs><path d="M0.97 0L0.97 311L306.42 311L0.97 0Z" id="a3Mtt24CwZ"></path><path d="M269.64 272.53C269.64 272.53 269.64 272.53 269.64 272.53C269.64 281.51 269.64 286.5 269.64 287.49C269.64 287.49 269.64 287.49 269.64 287.49C108.14 287.49 18.41 287.49 0.47 287.49C0.47 287.49 0.47 287.49 0.47 287.49C0.47 278.52 0.47 273.53 0.47 272.53C0.47 272.53 0.47 272.53 0.47 272.53C161.97 272.53 251.69 272.53 269.64 272.53Z" id="e1kvZvbp5k"></path><path d="M227.6 229.55C227.6 229.55 227.6 229.55 227.6 229.55C227.6 238.53 227.6 243.51 227.6 244.51C227.6 244.51 227.6 244.51 227.6 244.51C91.62 244.51 16.07 244.51 0.97 244.51C0.97 244.51 0.97 244.51 0.97 244.51C0.97 235.53 0.97 230.55 0.97 229.55C0.97 229.55 0.97 229.55 0.97 229.55C136.95 229.55 212.49 229.55 227.6 229.55Z" id="b1ajcsmygj"></path><path d="M106.72 106.6C106.72 106.6 106.72 106.6 106.72 106.6C106.72 115.57 106.72 120.56 106.72 121.56C106.72 121.56 106.72 121.56 106.72 121.56C42.97 121.56 7.55 121.56 0.47 121.56C0.47 121.56 0.47 121.56 0.47 121.56C0.47 112.58 0.47 107.59 0.47 106.6C0.47 106.6 0.47 106.6 0.47 106.6C64.22 106.6 99.64 106.6 106.72 106.6Z" id="arym7MqCi"></path><path d="M171.27 172.52C171.27 172.52 171.27 172.52 171.27 172.52C171.27 181.5 171.27 186.48 171.27 187.48C171.27 187.48 171.27 187.48 171.27 187.48C69.09 187.48 12.32 187.48 0.97 187.48C0.97 187.48 0.97 187.48 0.97 187.48C0.97 178.5 0.97 173.52 0.97 172.52C0.97 172.52 0.97 172.52 0.97 172.52C103.15 172.52 159.91 172.52 171.27 172.52Z" id="a5FVsbrkzQ"></path><path d="M106.4 106.6L121.03 121.56L106.4 121.56L106.4 106.6Z" id="bjmfy30FJ"></path><path d="M170.65 172.52L185.28 187.48L170.65 187.48L170.65 172.52Z" id="cyb3WHY3B"></path><path d="M226.65 229.55L241.28 244.51L226.65 244.51L226.65 229.55Z" id="b3DbypqnaX"></path><path d="M268.9 272.53L283.53 287.49L268.9 287.49L268.9 272.53Z" id="b7YteiUMEi"></path></defs><g><g><g><use xlink:href="#a3Mtt24CwZ" opacity="1" fill="#38aa31" fill-opacity="1"></use><g><use xlink:href="#a3Mtt24CwZ" opacity="1" fill-opacity="0" stroke="#000000" stroke-width="1" stroke-opacity="0"></use></g></g><g><use xlink:href="#e1kvZvbp5k" opacity="1" fill="#ffffff" fill-opacity="1"></use><g><use xlink:href="#e1kvZvbp5k" opacity="1" fill-opacity="0" stroke="#000000" stroke-width="1" stroke-opacity="0"></use></g></g><g><use xlink:href="#b1ajcsmygj" opacity="1" fill="#ffffff" fill-opacity="1"></use><g><use xlink:href="#b1ajcsmygj" opacity="1" fill-opacity="0" stroke="#000000" stroke-width="1" stroke-opacity="0"></use></g></g><g><use xlink:href="#arym7MqCi" opacity="1" fill="#ffffff" fill-opacity="1"></use><g><use xlink:href="#arym7MqCi" opacity="1" fill-opacity="0" stroke="#000000" stroke-width="1" stroke-opacity="0"></use></g></g><g><use xlink:href="#a5FVsbrkzQ" opacity="1" fill="#ffffff" fill-opacity="1"></use><g><use xlink:href="#a5FVsbrkzQ" opacity="1" fill-opacity="0" stroke="#000000" stroke-width="1" stroke-opacity="0"></use></g></g><g><use xlink:href="#bjmfy30FJ" opacity="1" fill="#ffffff" fill-opacity="1"></use></g><g><use xlink:href="#cyb3WHY3B" opacity="1" fill="#ffffff" fill-opacity="1"></use></g><g><use xlink:href="#b3DbypqnaX" opacity="1" fill="#ffffff" fill-opacity="1"></use></g><g><use xlink:href="#b7YteiUMEi" opacity="1" fill="#ffffff" fill-opacity="1"></use></g></g></g></svg>